<?xml version="1.0" standalone="no"?>
<!DOCTYPE svg PUBLIC "-//W3C//DTD SVG 20010904//EN"
 "http://www.w3.org/TR/2001/REC-SVG-20010904/DTD/svg10.dtd">
<svg version="1.0" xmlns="http://www.w3.org/2000/svg"
 width="321.000000pt" height="160.000000pt" viewBox="0 0 321.000000 160.000000"
 preserveAspectRatio="xMidYMid meet">

<g transform="translate(0.000000,160.000000) scale(0.100000,-0.100000)"
fill="#000000" stroke="none">
<path d="M1163 1499 c-10 -10 -13 -90 -13 -331 l0 -318 1011 2 1010 3 -1 315
c0 252 -3 318 -14 329 -12 11 -38 11 -172 -2 -142 -14 -175 -14 -309 -1 -125
12 -180 13 -332 3 -146 -10 -217 -10 -356 1 -144 11 -202 11 -331 0 -145 -12
-234 -11 -416 6 -47 4 -69 2 -77 -7z"/>
<path d="M778 1167 c-62 -18 -81 -32 -213 -151 -61 -57 -166 -146 -232 -199
-159 -128 -208 -182 -223 -250 -7 -29 -10 -67 -8 -85 l3 -34 130 -2 c121 -2
132 0 164 21 72 49 176 57 256 19 85 -39 155 -137 155 -215 0 -21 2 -22 138
-19 l137 3 3 436 c3 530 17 483 -150 486 -69 2 -131 -3 -160 -10z m230 -79 c7
-7 12 -42 12 -86 0 -67 -2 -76 -28 -101 -36 -37 -117 -51 -290 -51 -105 0
-134 3 -146 16 -9 8 -16 19 -16 22 0 14 175 181 205 196 38 20 244 23 263 4z"/>
<path d="M1142 668 l3 -143 509 -5 c484 -5 507 -6 489 -22 -18 -16 -60 -18
-509 -20 l-489 -3 0 -110 0 -110 500 0 499 0 8 42 c32 190 266 277 423 157 43
-32 79 -92 95 -155 l12 -46 249 51 249 50 0 53 0 53 -243 0 -243 0 -29 30 -29
30 265 0 c146 0 268 2 270 4 2 2 3 68 1 145 l-3 141 -1015 0 -1015 0 3 -142z"/>
<path d="M507 450 c-52 -10 -116 -57 -140 -104 -49 -95 -21 -217 64 -273 37
-25 52 -28 119 -28 66 0 82 4 117 27 49 33 93 114 93 172 0 54 -40 138 -78
165 -52 37 -117 52 -175 41z m108 -134 c32 -32 40 -69 25 -107 -16 -39 -46
-59 -88 -59 -44 0 -68 14 -88 52 -34 66 11 138 88 138 28 0 46 -7 63 -24z"/>
<path d="M2365 451 c-103 -25 -165 -104 -165 -208 1 -86 46 -156 122 -188 42
-17 124 -20 161 -6 35 14 95 69 114 105 21 40 22 141 1 181 -45 85 -148 136
-233 116z m104 -145 c33 -35 31 -93 -4 -123 -58 -50 -145 -13 -145 62 0 77 97
116 149 61z"/>
<path d="M110 393 c0 -5 5 -24 10 -44 15 -52 59 -90 113 -96 l44 -5 13 50 c6
28 18 59 25 69 8 10 15 21 15 26 0 4 -49 7 -110 7 -60 0 -110 -3 -110 -7z"/>
</g>
</svg>
