<?xml version="1.0" encoding="UTF-8"?><svg id="_Слой_1" xmlns="http://www.w3.org/2000/svg" viewBox="0 0 33.06 28.93"><defs><style>.cls-1{fill:#022e49;stroke-width:0px;}</style></defs><polygon class="cls-1" points="14.64 11.35 10.21 6.92 2.27 14.86 2.27 14.86 2.27 14.86 2.27 19.37 2.27 28.33 8.54 28.33 8.54 17.45 11.14 14.86 11.14 14.86 14.64 11.35"/><polygon class="cls-1" points="30.79 14.86 20.96 5.03 16.53 .6 12.1 5.03 16.53 9.46 21.93 14.86 24.52 17.45 24.52 28.33 30.79 28.33 30.79 15.6 30.79 14.86 30.79 14.86 30.79 14.86"/><polygon class="cls-1" points="20.96 25.09 16.53 20.66 12.1 25.09 8.85 28.33 15.34 28.33 17.72 28.33 24.21 28.33 20.96 25.09"/></svg>