<?xml version="1.0" encoding="UTF-8"?><svg id="_Слой_1" xmlns="http://www.w3.org/2000/svg" viewBox="0 0 149 28.97"><defs><style>.cls-1{fill:#022e49;stroke-width:0px;}</style></defs><polygon class="cls-1" points="15.19 11.24 10.76 6.81 2.82 14.75 2.82 14.75 2.82 14.75 2.82 19.26 2.82 28.23 9.09 28.23 9.09 17.34 11.68 14.75 11.68 14.75 15.19 11.24"/><polygon class="cls-1" points="31.34 14.75 21.51 4.92 17.08 .49 12.65 4.92 17.08 9.35 22.48 14.75 25.07 17.34 25.07 28.23 31.34 28.23 31.34 15.49 31.34 14.75 31.34 14.75 31.34 14.75"/><polygon class="cls-1" points="21.51 24.98 17.08 20.55 12.65 24.98 9.4 28.23 15.89 28.23 18.27 28.23 24.76 28.23 21.51 24.98"/><path class="cls-1" d="m38.27,12.6l2.04,8.85.44,2.46.45-2.41,1.75-8.9h3.41l1.84,8.85.47,2.46.48-2.37,2.06-8.95h3.29l-4.35,15.46h-3.09l-1.87-9.04-.55-2.99-.55,2.99-1.87,9.04h-3l-4.38-15.46h3.43Z"/><path class="cls-1" d="m67.69,26.68c-1.17,1.2-2.86,1.8-5.06,1.8s-3.9-.6-5.06-1.8c-1.57-1.47-2.35-3.6-2.35-6.38s.78-4.96,2.35-6.38c1.17-1.2,2.86-1.8,5.06-1.8s3.9.6,5.06,1.8c1.56,1.42,2.34,3.54,2.34,6.38s-.78,4.9-2.34,6.38Zm-2.02-2.35c.75-.94,1.13-2.29,1.13-4.03s-.38-3.07-1.13-4.02c-.75-.95-1.77-1.42-3.05-1.42s-2.3.47-3.06,1.42c-.76.94-1.14,2.29-1.14,4.03s.38,3.08,1.14,4.03c.76.94,1.78,1.42,3.06,1.42s2.29-.47,3.05-1.42Z"/><path class="cls-1" d="m83.75,26.68c-1.17,1.2-2.86,1.8-5.06,1.8s-3.9-.6-5.06-1.8c-1.57-1.47-2.35-3.6-2.35-6.38s.78-4.96,2.35-6.38c1.17-1.2,2.86-1.8,5.06-1.8s3.9.6,5.06,1.8c1.56,1.42,2.34,3.54,2.34,6.38s-.78,4.9-2.34,6.38Zm-2.02-2.35c.75-.94,1.13-2.29,1.13-4.03s-.38-3.07-1.13-4.02c-.75-.95-1.77-1.42-3.05-1.42s-2.3.47-3.06,1.42c-.76.94-1.14,2.29-1.14,4.03s.38,3.08,1.14,4.03c.76.94,1.78,1.42,3.06,1.42s2.29-.47,3.05-1.42Z"/><path class="cls-1" d="m96.97,12.93c1.08.36,1.96,1.01,2.63,1.96.54.77.91,1.6,1.1,2.5s.29,1.75.29,2.56c0,2.06-.41,3.8-1.24,5.22-1.12,1.92-2.85,2.88-5.18,2.88h-6.66v-15.46h6.66c.96.01,1.76.13,2.39.34Zm-5.92,2.35v10.09h2.98c1.53,0,2.59-.75,3.19-2.25.33-.82.49-1.81.49-2.95,0-1.57-.25-2.78-.74-3.62-.49-.84-1.48-1.26-2.95-1.26h-2.98Z"/><path class="cls-1" d="m111.83,12.93c1.08.36,1.96,1.01,2.63,1.96.54.77.91,1.6,1.1,2.5s.29,1.75.29,2.56c0,2.06-.41,3.8-1.24,5.22-1.12,1.92-2.85,2.88-5.18,2.88h-6.66v-15.46h6.66c.96.01,1.76.13,2.39.34Zm-5.92,2.35v10.09h2.98c1.53,0,2.59-.75,3.19-2.25.33-.82.49-1.81.49-2.95,0-1.57-.25-2.78-.74-3.62-.49-.84-1.48-1.26-2.95-1.26h-2.98Z"/><path class="cls-1" d="m129.54,26.68c-1.17,1.2-2.86,1.8-5.06,1.8s-3.9-.6-5.07-1.8c-1.57-1.47-2.35-3.6-2.35-6.38s.78-4.96,2.35-6.38c1.17-1.2,2.86-1.8,5.07-1.8s3.9.6,5.06,1.8c1.56,1.42,2.34,3.54,2.34,6.38s-.78,4.9-2.34,6.38Zm-2.02-2.35c.75-.94,1.13-2.29,1.13-4.03s-.38-3.07-1.13-4.02c-.75-.95-1.77-1.42-3.05-1.42s-2.3.47-3.06,1.42c-.76.94-1.14,2.29-1.14,4.03s.38,3.08,1.14,4.03c.76.94,1.78,1.42,3.06,1.42s2.29-.47,3.05-1.42Z"/><path class="cls-1" d="m133.65,12.6h3.39l6.14,10.78v-10.78h3.01v15.46h-3.23l-6.29-10.97v10.97h-3.01v-15.46Z"/></svg>