<?xml version="1.0" standalone="no"?>
<!DOCTYPE svg PUBLIC "-//W3C//DTD SVG 20010904//EN"
 "http://www.w3.org/TR/2001/REC-SVG-20010904/DTD/svg10.dtd">
<svg version="1.0" xmlns="http://www.w3.org/2000/svg"
 width="811.000000pt" height="444.000000pt" viewBox="0 0 811.000000 444.000000"
 preserveAspectRatio="xMidYMid meet">

<g transform="translate(0.000000,444.000000) scale(0.100000,-0.100000)"
fill="#000000" stroke="none">
<path d="M3443 4028 l-263 -262 0 -1104 0 -1103 -67 3 -68 3 -3 1028 -2 1027
-793 0 c-507 0 -805 -4 -829 -10 -26 -8 -54 -30 -100 -83 -35 -39 -225 -252
-424 -472 -383 -426 -420 -469 -462 -549 l-27 -51 -3 -543 -3 -542 589 0 589
0 59 29 c200 100 457 100 659 0 199 -98 354 -290 402 -497 l17 -72 793 0 793
0 0 26 c0 14 11 60 25 101 83 246 286 434 540 498 102 26 267 24 369 -4 269
-74 474 -282 542 -548 l18 -73 67 0 67 0 7 48 c10 67 60 183 117 267 206 309
616 418 953 253 196 -95 354 -290 402 -496 l17 -72 193 0 193 0 0 365 0 365
-2032 2 -2033 3 -3 223 -2 222 -125 0 -125 0 0 808 0 807 173 173 172 172 603
0 602 0 0 -90 c0 -83 1 -90 20 -90 18 0 20 -7 20 -64 0 -63 -1 -65 -27 -68
-25 -3 -31 -12 -55 -78 -42 -117 -41 -119 57 -202 l85 -72 0 -57 c0 -63 2 -66
90 -119 96 -58 107 -166 23 -209 -12 -6 -43 -11 -68 -11 -50 0 -59 7 -137 102
-23 28 -29 31 -38 18 -16 -22 -4 -116 19 -154 57 -91 202 -127 305 -74 48 24
97 83 112 136 29 98 -5 176 -111 256 -67 50 -75 60 -75 89 1 28 12 41 80 100
54 46 80 75 80 89 0 12 -12 59 -27 105 -25 78 -29 83 -55 83 -28 0 -28 1 -28
65 0 58 2 65 20 65 19 0 20 7 20 250 l0 250 -822 0 -822 0 -263 -262z m1797
-303 l0 -65 -45 0 -45 0 0 65 0 65 45 0 45 0 0 -65z m-2792 -798 l2 -518 -812
3 c-863 3 -844 2 -895 50 -45 42 -17 134 73 241 51 62 621 692 637 706 47 38
78 40 542 38 l450 -2 3 -518z"/>
<path d="M3880 2405 l0 -715 2050 0 2050 0 0 395 0 395 -1950 0 -1950 0 0 320
0 320 -100 0 -100 0 0 -715z"/>
<path d="M1816 1324 c-212 -51 -387 -221 -452 -439 -13 -42 -18 -93 -18 -170
0 -97 4 -120 30 -195 37 -107 86 -181 169 -259 113 -105 258 -161 420 -161
174 0 312 57 436 180 81 81 133 168 165 275 24 81 24 248 -1 330 -64 218 -241
389 -455 439 -80 19 -215 19 -294 0z m289 -303 c69 -32 137 -100 168 -169 17
-36 22 -66 22 -132 0 -102 -21 -155 -89 -228 -90 -96 -228 -129 -356 -87 -76
25 -170 118 -199 198 -59 163 16 344 174 418 50 24 73 29 140 29 67 0 90 -5
140 -29z"/>
<path d="M4882 1320 c-112 -30 -187 -74 -278 -165 -62 -62 -90 -100 -118 -158
-87 -180 -87 -373 0 -555 54 -112 168 -224 284 -280 101 -48 163 -62 273 -62
174 0 317 59 438 180 99 99 151 200 175 343 15 88 15 105 1 184 -20 118 -48
189 -110 275 -151 210 -413 304 -665 238z m316 -305 c156 -85 220 -273 148
-432 -117 -257 -470 -263 -603 -11 -25 47 -28 63 -28 148 0 81 4 102 24 140
30 58 65 98 110 131 67 48 108 59 206 56 77 -2 98 -7 143 -32z"/>
<path d="M6526 1325 c-96 -24 -196 -78 -268 -144 -82 -76 -131 -148 -171 -254
-28 -76 -30 -91 -30 -207 0 -109 3 -134 26 -198 73 -203 237 -355 442 -407 76
-19 212 -19 295 1 216 50 398 228 456 444 22 86 22 234 0 320 -53 196 -204
359 -398 427 -92 33 -259 41 -352 18z m280 -299 c98 -46 159 -117 190 -222 44
-154 -36 -321 -187 -389 -106 -47 -238 -34 -330 33 -206 152 -176 463 56 573
81 39 194 41 271 5z"/>
<path d="M300 1085 c0 -168 9 -209 51 -239 21 -14 71 -16 444 -16 l421 0 13
63 c16 80 75 205 135 285 l46 62 -555 0 -555 0 0 -155z"/>
</g>
</svg>
