<?xml version="1.0" standalone="no"?>
<!DOCTYPE svg PUBLIC "-//W3C//DTD SVG 20010904//EN"
 "http://www.w3.org/TR/2001/REC-SVG-20010904/DTD/svg10.dtd">
<svg version="1.0" xmlns="http://www.w3.org/2000/svg"
 width="357.000000pt" height="232.000000pt" viewBox="0 0 357.000000 232.000000"
 preserveAspectRatio="xMidYMid meet">

<g transform="translate(0.000000,232.000000) scale(0.100000,-0.100000)"
fill="#000000" stroke="none">
<path d="M421 2086 c-14 -17 -5 -28 130 -149 l96 -87 295 0 295 0 20 -97 c12
-54 60 -295 109 -535 l87 -438 403 0 c395 0 403 0 409 20 14 43 113 136 177
166 55 25 75 29 153 29 78 0 98 -4 153 -29 64 -30 163 -123 177 -166 6 -18 15
-20 111 -20 57 0 104 2 104 4 0 3 -43 87 -95 189 l-95 184 230 151 c126 83
230 157 230 164 0 13 -130 199 -167 241 -15 16 -63 17 -734 17 l-718 0 -128
183 -128 182 -551 3 c-464 2 -553 0 -563 -12z m1353 -523 c26 -94 136 -599
132 -609 -4 -11 -38 -14 -156 -14 -147 0 -151 1 -160 23 -17 41 -141 598 -135
607 4 6 73 10 160 10 138 0 154 -2 159 -17z m450 9 c2 -4 27 -109 55 -232 29
-124 54 -231 56 -238 3 -7 -5 -20 -17 -30 -12 -9 -50 -43 -84 -75 l-62 -58
-63 3 -63 3 -69 302 c-38 166 -67 309 -64 317 5 14 30 16 156 16 82 0 152 -3
155 -8z m461 -14 c44 -189 75 -325 75 -335 0 -7 -19 -25 -42 -41 -39 -26 -54
-30 -150 -36 -58 -4 -109 -3 -111 1 -11 18 -97 416 -91 424 3 5 75 9 159 9
152 0 155 0 160 -22z m461 -30 c9 -35 9 -51 0 -61 -14 -17 -243 -167 -256
-167 -5 0 -11 4 -14 8 -12 20 -58 243 -52 257 5 13 28 15 158 13 l152 -3 12
-47z"/>
<path d="M1514 1513 c2 -10 31 -132 62 -270 l58 -253 108 0 c59 0 108 3 108 6
0 3 -27 123 -60 266 -33 143 -60 261 -60 264 0 2 -50 4 -111 4 -100 0 -110 -2
-105 -17z"/>
<path d="M1970 1520 c0 -11 94 -428 111 -492 9 -33 14 -38 40 -38 21 0 40 11
67 38 20 21 49 47 65 58 l28 19 -48 210 -48 210 -108 3 c-71 2 -107 -1 -107
-8z"/>
<path d="M2425 1508 c3 -13 21 -88 39 -168 l32 -145 80 3 c49 2 88 9 103 19
27 17 27 22 -15 200 l-26 113 -109 0 c-108 0 -109 0 -104 -22z"/>
<path d="M2885 1488 c4 -23 13 -59 19 -79 l11 -37 90 58 c125 82 123 94 -18
98 l-109 3 7 -43z"/>
<path d="M601 1746 c-6 -7 -44 -125 -84 -262 l-73 -249 -127 -88 -127 -88 0
-140 0 -139 164 0 164 0 12 29 c20 49 101 122 170 155 58 28 75 31 155 31 78
0 98 -4 153 -29 64 -30 163 -123 177 -166 6 -18 15 -20 96 -20 79 0 89 2 89
18 0 46 -209 945 -221 953 -8 5 -132 9 -275 9 -210 0 -264 -3 -273 -14z m349
-271 l0 -105 -205 0 c-113 0 -205 2 -205 4 0 1 4 16 9 32 6 16 19 62 31 102
l21 72 174 0 175 0 0 -105z"/>
<path d="M722 889 c-34 -16 -73 -45 -88 -62 -100 -119 -99 -283 3 -397 l45
-50 -304 -2 c-295 -3 -303 -3 -303 -23 0 -20 7 -20 1665 -20 1658 0 1665 0
1665 20 0 20 -8 20 -318 23 l-319 2 45 50 c59 65 81 131 75 219 -8 112 -61
191 -160 240 -51 26 -73 31 -133 31 -161 0 -281 -111 -293 -271 -6 -88 16
-154 75 -219 l45 -50 -697 0 -697 0 44 48 c132 148 91 374 -84 461 -51 26 -73
31 -133 31 -60 0 -82 -5 -133 -31z m216 -148 c44 -31 68 -100 53 -150 -14 -47
-71 -100 -109 -103 -78 -4 -119 16 -152 75 -72 128 87 265 208 178z m1716 15
c18 -7 44 -29 57 -47 65 -91 -4 -222 -116 -222 -112 0 -181 131 -116 222 40
56 109 75 175 47z"/>
<path d="M808 705 c-33 -18 -52 -72 -39 -108 22 -58 103 -76 146 -32 39 38 37
88 -6 128 -33 30 -61 33 -101 12z"/>
<path d="M2538 691 c-89 -80 28 -205 118 -127 41 35 39 89 -4 127 -41 37 -73
37 -114 0z"/>
<path d="M114 716 c-16 -12 -19 -27 -19 -84 0 -105 -5 -102 209 -102 l181 0 0
100 0 100 -176 0 c-135 0 -180 -3 -195 -14z"/>
<path d="M1225 625 l0 -105 500 0 500 0 0 105 0 105 -500 0 -500 0 0 -105z"/>
<path d="M2965 625 l0 -105 108 0 c112 0 158 12 171 45 3 9 6 39 6 66 0 40 -5
55 -25 74 -23 24 -30 25 -142 25 l-118 0 0 -105z"/>
<path d="M293 154 c-3 -8 -1 -20 4 -25 5 -5 213 -8 529 -7 l519 3 3 23 3 22
-526 0 c-468 0 -526 -2 -532 -16z"/>
<path d="M1513 154 c-3 -8 -1 -20 4 -25 5 -5 156 -8 379 -7 361 3 369 3 369
23 0 20 -8 20 -373 23 -332 2 -373 1 -379 -14z"/>
<path d="M2436 161 c-4 -5 -3 -16 0 -25 6 -15 45 -16 378 -14 363 3 371 3 371
23 0 20 -8 20 -372 23 -219 1 -374 -2 -377 -7z"/>
</g>
</svg>
